<svg xmlns="http://www.w3.org/2000/svg" width="482.15" height="295.59" viewBox="0 0 482.15 295.59"><title>winding-order-03-render</title><path d="M-290.06-79.12L-292.91-81l7.19-3.5-0.56,8-2.83-1.91a71,71,0,0,0-10.27,36.83,71.25,71.25,0,0,0,71.17,71.17A71.25,71.25,0,0,0-157-41.65a71.25,71.25,0,0,0-71.17-71.17,71.08,71.08,0,0,0-36.38,10l-0.59-1a72.22,72.22,0,0,1,37-10.15A72.39,72.39,0,0,1-155.9-41.65a72.39,72.39,0,0,1-72.31,72.31,72.39,72.39,0,0,1-72.31-72.31A72.11,72.11,0,0,1-290.06-79.12Z" transform="translate(300.52 113.96)" style="fill:#231f20"/><path d="M-274.56-44.8l-2.22,0,2.51,4.51,2.65-4.43-2.2,0a45.79,45.79,0,0,1,8.16-23.28,46,46,0,0,1,63.93-11.4,46,46,0,0,1,11.4,63.93,46,46,0,0,1-63.93,11.4,45.86,45.86,0,0,1-15.57-18.72l-0.67.3a46.6,46.6,0,0,0,15.82,19,46.71,46.71,0,0,0,65-11.58,46.71,46.71,0,0,0-11.58-65,46.71,46.71,0,0,0-65,11.58A46.53,46.53,0,0,0-274.56-44.8Z" transform="translate(300.52 113.96)" style="fill:#231f20"/><path d="M110,38.37A71.63,71.63,0,1,0,181.63,110,71.63,71.63,0,0,0,110,38.37Zm0,117.41A45.78,45.78,0,1,1,155.78,110,45.78,45.78,0,0,1,110,155.78Z" transform="translate(300.52 113.96)" style="fill:#231f20"/></svg>