<svg xmlns="http://www.w3.org/2000/svg" viewBox="0 0 358.94 358.94"><title>winding-order-02</title><path d="M357.51,107l7.07-4.78-17.85-8.7,1.39,19.81,7-4.74A176.12,176.12,0,0,1,380.64,200c0,97.39-79.23,176.63-176.62,176.63S27.39,297.39,27.39,200,106.62,23.37,204,23.37a176.41,176.41,0,0,1,90.3,24.8l1.46-2.44A179.25,179.25,0,0,0,204,20.53C105.06,20.53,24.55,101,24.55,200S105.06,379.47,204,379.47,383.49,299,383.49,200A179,179,0,0,0,357.51,107Z" transform="translate(-24.55 -20.53)" style="fill:#231f20"/><path d="M301.21,165.16a103.2,103.2,0,1,0-21.88,105.49l6.72,5.29,2.83-19.65-18.44,7.37,6.65,5.23a100.38,100.38,0,1,1,25.5-49.69l2.79,0.55A103.13,103.13,0,0,0,301.21,165.16Z" transform="translate(-24.55 -20.53)" style="fill:#231f20"/></svg>