<svg xmlns="http://www.w3.org/2000/svg" width="220" height="220" viewBox="0 0 220 220"><title>winding-order-05</title><path d="M41.08,68.25L37.91,66.1l8-3.91L45.3,71.09,42.14,69A79.21,79.21,0,1,0,69.46,41.83l-0.65-1.1A80.63,80.63,0,1,1,41.08,68.25Z" style="fill:#231f20"/><path d="M43,106.48l-2.61,0,3,5.3,3.11-5.21-2.59,0a53.9,53.9,0,1,1,4.68,25.77l-0.79.36A54.86,54.86,0,1,0,43,106.48Z" style="fill:#231f20"/><path d="M98.93,80.81l0.61-1.49,2.3,3-3.71.51,0.6-1.48a33.24,33.24,0,1,0,13.5,8.87l0.39-.36A33.83,33.83,0,1,1,98.93,80.81Z" style="fill:#231f20"/></svg>